<svg width="16" height="16" viewBox="0 0 16 16" fill="none" aria-hidden="true" xmlns="http://www.w3.org/2000/svg">
  <defs></defs>
  <path fill-rule="evenodd" clip-rule="evenodd" d="M3 1.5a.5.5 0 01.5-.5h9a.5.5 0 010 1h-9a.5.5 0 01-.5-.5zM13 6a2 2 0 00-2-2H5a2 2 0 00-2 2v4a2 2 0 002 2h6a2 2 0 002-2V6zM5 5h6l.117.007A1 1 0 0112 6v4l-.007.117A1 1 0 0111 11H5l-.117-.007A1 1 0 014 10V6l.007-.117A1 1 0 015 5zm-1.5 9a.5.5 0 000 1h9a.5.5 0 000-1h-9z" fill="currentColor"></path>
  <path fill="#494c4e" d="M 10.613 8.008 C 10.613 8.196 10.417 8.348 10.175 8.348 L 8.425 8.348 L 8.425 9.699 C 8.425 9.96 8.062 10.123 7.769 9.992 C 7.634 9.931 7.549 9.819 7.549 9.699 L 7.549 8.348 L 5.8 8.348 C 5.463 8.348 5.253 8.064 5.421 7.839 C 5.5 7.735 5.643 7.671 5.8 7.671 L 7.549 7.671 L 7.549 6.317 C 7.549 6.057 7.915 5.894 8.206 6.025 C 8.342 6.084 8.425 6.196 8.425 6.317 L 8.425 7.671 L 10.175 7.671 C 10.417 7.671 10.613 7.822 10.613 8.008 Z" style=""></path>
</svg>