<!DOCTYPE svg PUBLIC "-//W3C//DTD SVG 1.1//EN" "http://www.w3.org/Graphics/SVG/1.1/DTD/svg11.dtd">

<!-- Uploaded to: SVG Repo, www.svgrepo.com, Transformed by: SVG Repo Mixer Tools -->
<svg width="800px" height="800px" viewBox="0 0 24 24" fill="none" xmlns="http://www.w3.org/2000/svg" stroke="#004c94" aria-hidden="true">

<g id="SVGRepo_bgCarrier" stroke-width="0"/>

<g id="SVGRepo_tracerCarrier" stroke-linecap="round" stroke-linejoin="round"/>

<g id="SVGRepo_iconCarrier"> <path opacity="0.15" d="M21 18V12H16L14 15H10L8.5 12H3V18C3 19.1046 3.89543 20 5 20H19C20.1046 20 21 19.1046 21 18Z" fill="#004585"/> <path d="M3 12H8.5L10 15H14L16 12H21M3 12V18C3 19.1046 3.89543 20 5 20H19C20.1046 20 21 19.1046 21 18V12M3 12L5.75667 4.64888C5.90304 4.25857 6.27616 4 6.693 4H17.307C17.7238 4 18.097 4.25857 18.2433 4.64888L21 12" stroke="#004585" stroke-width="1.5" stroke-linecap="round" stroke-linejoin="round"/> </g>

</svg>